# xmcd
#
# Track frame offsets: 
#        150
#        1335
#        20700
#        37725
#        55157
#
# Disc length: 753 seconds
#
# Revision: 0
# Processed by: cddbd v1.5.1PL0 Copyright (c) Steve Scherf et al.
# Submitted via: ExactAudioCopy v0.95a3
#
DISCID=3002ef05
DTITLE=Laura Allen - Your Christmas Day
DYEAR=1996
DGENRE=Country
TTITLE0=A Holiday Hello From Laura
TTITLE1=Your Christmas Day (Warm and Cozy Mix)
TTITLE2=Your Christmas Day (Warm and Cozy Mix Unplugged)
TTITLE3=Your Christmas Day [CD Mix)
TTITLE4=Tagapella
EXTD=
EXTT0=
EXTT1=
EXTT2=
EXTT3=
EXTT4=
PLAYORDER=
